<?xml version="1.0" encoding="utf-8"?>
<!-- Generator: Adobe Illustrator 26.0.0, SVG Export Plug-In . SVG Version: 6.00 Build 0)  -->
<svg version="1.1" id="Layer_1" xmlns="http://www.w3.org/2000/svg" xmlns:xlink="http://www.w3.org/1999/xlink" x="0px" y="0px"
	 viewBox="0 0 24 24" style="enable-background:new 0 0 24 24;" xml:space="preserve">
<style type="text/css">
	.st0{fill:#FFD500;}
</style>
<g>
	<path class="st0" d="M23,21.2h-7.2v-1.7H20l-5.5-9.6c-0.6,2.7-2.8,4.9-5.7,5.2l-2.5,4.4h4.2v1.7H3.3l4.5-7.7l0.5,0
		c2.6-0.2,4.7-2.3,4.7-4.9c0-0.8-0.2-1.5-0.5-2.3l1.5-0.8L23,21.2z"/>
</g>
<g>
	<path class="st0" d="M8,15.1c-3.7,0-6.6-3-6.6-6.6c0-3.7,3-6.6,6.6-6.6c2.5,0,4.8,1.4,5.9,3.6c0.5,0.9,0.7,2,0.7,3
		c0,3.5-2.8,6.4-6.3,6.6L8,15.1z M8,3.6c-2.7,0-4.9,2.2-4.9,4.9s2.2,4.9,4.9,4.9h0.3c2.6-0.2,4.6-2.3,4.6-4.9c0-0.8-0.2-1.6-0.5-2.3
		C11.6,4.6,9.9,3.6,8,3.6z"/>
</g>
</svg>
