<?xml version="1.0" encoding="utf-8"?>
<!-- Generator: Adobe Illustrator 26.0.0, SVG Export Plug-In . SVG Version: 6.00 Build 0)  -->
<svg version="1.1" id="Layer_1" xmlns="http://www.w3.org/2000/svg" xmlns:xlink="http://www.w3.org/1999/xlink" x="0px" y="0px"
	 viewBox="0 0 24 24" style="enable-background:new 0 0 24 24;" xml:space="preserve">
<style type="text/css">
	.st0{fill:#FF9100;}
</style>
<g>
	<path class="st0" d="M5.8,0.9c2.9,0,5.7,0,8.6,0c0,1.3,0,2.6,0,3.9c0,1.5,1,2.5,2.5,2.5c1.2,0,2.4,0,3.6,0c0.1,0,0.2,0,0.2,0
		c0,0.1,0,0.1,0,0.2c0,4.3,0,8.5,0,12.8c0,1.6-1.3,2.8-2.8,2.8c-3.9,0-7.8,0-11.7,0c-1.6,0-2.8-1.3-2.8-2.8c0-5.5,0-11,0-16.5
		c0-0.9,0.4-1.7,1.2-2.3C4.8,1.2,5.3,1,5.8,0.9z M12,15.2c1,0,2.1,0,3.1,0c0.5,0,0.8-0.3,0.8-0.8c0-0.5-0.3-0.8-0.8-0.8
		c-2.1,0-4.1,0-6.2,0c-0.1,0-0.2,0-0.3,0c-0.4,0.1-0.6,0.5-0.5,0.9c0.1,0.4,0.4,0.6,0.8,0.6C9.9,15.2,10.9,15.2,12,15.2z"/>
	<path class="st0" d="M20.6,5.7c-0.1,0-0.2,0-0.2,0c-1.2,0-2.3,0-3.5,0c-0.6,0-0.9-0.3-0.9-0.9c0-1.2,0-2.3,0-3.5c0-0.1,0-0.1,0-0.2
		c0.4,0.1,0.8,0.4,1.1,0.7c0.6,0.6,1.2,1.2,1.8,1.8c0.4,0.4,0.8,0.8,1.1,1.2C20.3,4.9,20.5,5.2,20.6,5.7z"/>
</g>
</svg>
