<?xml version="1.0" encoding="utf-8"?>
<!-- Generator: Adobe Illustrator 26.0.0, SVG Export Plug-In . SVG Version: 6.00 Build 0)  -->
<svg version="1.1" id="Layer_1" xmlns="http://www.w3.org/2000/svg" xmlns:xlink="http://www.w3.org/1999/xlink" x="0px" y="0px"
	 viewBox="0 0 230 52" style="enable-background:new 0 0 230 52;" xml:space="preserve">
<style type="text/css">
	.st0{fill:none;stroke:#FFD500;stroke-width:2.8346;stroke-miterlimit:10;}
	.st1{fill:#CCCBCB;}
</style>
<g>
	<path class="st0" d="M15.8,40.1H6.3l5.8-10c5.1-0.3,9.1-4.5,9.1-9.6c0-1.6-0.4-3.1-1-4.4l6.9,12l6.9,12h-9.5"/>
	<path class="st0" d="M21.2,20.4c0,5.1-4,9.3-9.1,9.6c-0.2,0-0.3,0-0.5,0C6.3,30,2,25.7,2,20.4s4.3-9.6,9.6-9.6c3.7,0,7,2.1,8.6,5.2
		C20.9,17.4,21.2,18.9,21.2,20.4z"/>
	<g>
		<g>
			<path class="st1" d="M48.7,15.9v-1.6h10.6v1.6l-4.5,0.6h-1.1L48.7,15.9z M57.8,29.8l-7.7-15.6h5.2l6,13l-1.1,0.1l6.2-13.1h2.1
				l-7.6,15.6C60.8,29.8,57.8,29.8,57.8,29.8z M60,35.4l5.1,0.6v1.6H53.8V36l5-0.6H60z M57.1,26.9h4.5c0,4.6,0,7.5,0.1,10.7H57
				C57.1,34.5,57.1,31.5,57.1,26.9z M66.1,16.5l-3.6-0.6v-1.6h7.7v1.6l-3.3,0.6H66.1z"/>
			<path class="st1" d="M78.1,28c1.4-0.5,3.8-1.1,5.5-1.5v1.3c-1.6,0.4-3.6,0.9-4.6,1.4c-2.4,0.9-3,2.2-3,3.5c0,1.8,1,2.6,2.5,2.6
				c0.9,0,1.6-0.4,3.2-1.5l1-0.8l0.5,0.7L81.9,35c-1.9,2-3,3-5.4,3c-2.7,0-4.6-1.5-4.6-4.5C71.8,31.4,73.1,29.7,78.1,28z M81.4,34.6
				v-8.4c0-3.3-0.8-4.2-3-4.2c-0.9,0-1.8,0.1-3.2,0.6l1.9-1.2l-0.6,2.7c-0.2,1.7-1,2.5-2.2,2.5c-1.1,0-1.8-0.6-2-1.6
				c0.4-2.8,3.1-4.6,7.5-4.6c4.1,0,5.9,1.8,5.9,6.4v7.7c0,1.1,0.4,1.6,1,1.6c0.5,0,0.9-0.3,1.2-0.8l0.9,0.7c-0.9,1.6-2,2.3-3.6,2.3
				C82.9,38,81.6,36.7,81.4,34.6z"/>
			<path class="st1" d="M95.9,11.8l0.6,0.3L96.3,17v13c0,2.4,0,5.5,0.1,7.5h-4.5c0.1-2,0.1-5.1,0.1-7.4v-15l-2.6-0.4v-1.3L95.9,11.8
				z M98.7,36.2v1.4h-9.1v-1.4l3.6-0.7H95L98.7,36.2z M106.6,20.7L94.2,33v-2.1l10-10L106.6,20.7L106.6,20.7z M104.5,35.2l4.3,0.9
				v1.4h-5.9l-5.1-9.3l2.9-2.8l6.5,11.5L104.5,35.2z M103,22.9l-3.3-0.8v-1.4h8.2v1.4l-3.9,0.6L103,22.9z"/>
			<path class="st1" d="M110.1,29.2c0-5.6,4-8.9,8.4-8.9c4.5,0,8.4,3.2,8.4,8.9s-3.8,8.9-8.4,8.9C113.8,38.1,110.1,34.8,110.1,29.2z
				 M122.5,29.2c0-4.8-1.4-7.2-3.9-7.2c-2.6,0-3.9,2.4-3.9,7.2s1.3,7.2,3.9,7.2C121.1,36.4,122.5,34.1,122.5,29.2z"/>
			<path class="st1" d="M131.6,22.8l-3.3-0.6v-1.4h9.2v1.3l-3.7,0.6L131.6,22.8L131.6,22.8z M134.1,20.7l5,13.4l-1.9,2.8l5.6-16.2
				h2.2l-6.4,17h-2.1l-7.1-17C129.4,20.7,134.1,20.7,134.1,20.7z M142.8,22.7l-3.2-0.6v-1.4h6.6v1.4l-2.7,0.6H142.8z"/>
			<path class="st1" d="M167.9,36.1c-2.5,1.3-4.8,2.1-7.9,2.1c-7.1,0-12-4.9-12-12.3c0-7.2,4.7-12.2,12.3-12.2
				c2.7,0,4.9,0.6,6.9,1.6l0.1,5.3h-2.5l-1-5.4l2.3,0.6v1.9c-1.8-1.5-3.5-2.2-5.4-2.2c-4.4,0-7.8,3.5-7.8,10.3s3.2,10.4,7.9,10.4
				c1.7,0,2.9-0.5,4.7-1.3l-2.2,2v-2.4c0-2.7,0-5.5-0.1-8.2h4.6c-0.1,2.7-0.1,5.5-0.1,8.3L167.9,36.1L167.9,36.1z M160,27.9v-1.6h10
				v1.6l-4,0.5h-1.5L160,27.9z"/>
			<path class="st1" d="M187.2,27.4c0,0.8-0.1,1.4-0.2,1.9h-13.4v-1.7h7.5c1.7,0,2.1-0.8,2.1-2c0-2.2-1.4-3.6-3.1-3.6
				c-1.9,0-3.8,1.7-3.8,6.8c0,4.4,2.2,6.5,5.2,6.5c2.1,0,3.4-0.9,4.5-2.2l1,0.9c-1.3,2.7-3.8,4.1-7,4.1c-4.9,0-8.2-3.3-8.2-8.8
				c0-5.6,4.1-9,8.5-9C184.4,20.3,187.2,23.1,187.2,27.4z"/>
			<path class="st1" d="M192,30.2v-1.9c0-1.9,0-2.8-0.1-4.3l-2.5-0.3v-1.3l5.9-2.2l0.6,0.4l0.4,4.4v5.2c0,2.2,0,5.8,0.1,7.4h-4.5
				C192,36,192,32.4,192,30.2z M189.7,36.2l3.6-0.7h2.2l3.6,0.7v1.4h-9.5L189.7,36.2L189.7,36.2z M194.3,25.5h2.4L196,26
				c0.9-3.8,3.1-5.9,5.2-5.9c1.2,0,2.5,0.7,2.7,1.9c0,1.7-0.9,2.7-2.3,2.7c-0.9,0-1.7-0.4-2.5-1.2l-0.9-1l1.6,0.1
				c-1.7,1-2.9,2.8-3.6,5.2l-2-0.1L194.3,25.5L194.3,25.5z"/>
			<path class="st1" d="M207.5,37.6c0.1-1.6,0.1-5.2,0.1-7.4v-1.7c0-1.9,0-3-0.1-4.5l-2.6-0.3v-1.3l6.4-2.2l0.6,0.4l-0.1,4.9v4.6
				c0,2.2,0,5.8,0.1,7.4C211.8,37.6,207.5,37.6,207.5,37.6z M214,36.2v1.4h-8.7v-1.4l3.6-0.7h1.7L214,36.2z M207,14.5
				c0-1.5,1.1-2.5,2.7-2.5s2.7,1,2.7,2.5s-1.1,2.5-2.7,2.5S207,15.9,207,14.5z"/>
			<path class="st1" d="M224,35.7c0.7,0,1.3-0.3,2.2-0.9l0.9,0.9c-0.9,1.4-2.5,2.3-4.6,2.3c-2.8,0-4.5-1.3-4.5-4.5c0-1,0-1.9,0-3.2
				v-7.5h-2.6V21l4.3-0.6l-1.7,1.3l1.6-5.9h2.8l-0.2,6.3v11.1C222.1,35,222.8,35.7,224,35.7z M226.3,20.7v2.1H220v-2.1H226.3z"/>
		</g>
	</g>
</g>
</svg>
